<svg width="30" height="30" viewBox="0 0 30 30" fill="none" xmlns="http://www.w3.org/2000/svg">
<path d="M20.5963 3.755C20.805 3.77375 20.8963 4.02875 20.7463 4.1775L10.3463 14.5775C10.2288 14.6951 10.1447 14.8417 10.1025 15.0025L8.85253 19.79C8.81126 19.9482 8.81209 20.1145 8.85494 20.2723C8.89778 20.4301 8.98115 20.5739 9.09677 20.6895C9.21238 20.8051 9.35623 20.8885 9.51402 20.9313C9.67181 20.9742 9.83806 20.975 9.99628 20.9338L14.7825 19.6838C14.9434 19.6413 15.0901 19.5567 15.2075 19.4388L25.755 8.89125C25.788 8.85737 25.83 8.83366 25.8761 8.82292C25.9222 8.81217 25.9703 8.81485 26.0149 8.83063C26.0595 8.84641 26.0986 8.87464 26.1277 8.91197C26.1567 8.94929 26.1744 8.99416 26.1788 9.04125C26.6178 13.2283 26.5927 17.451 26.1038 21.6325C25.825 24.0138 23.9113 25.8825 21.5388 26.1488C17.1933 26.6302 12.808 26.6302 8.46253 26.1488C6.08878 25.8825 4.17503 24.0138 3.89628 21.6325C3.38125 17.2263 3.38125 12.775 3.89628 8.36875C4.17503 5.98625 6.08878 4.1175 8.46253 3.8525C12.4932 3.40572 16.559 3.37305 20.5963 3.755Z" fill="#1D52AD"/>
<path d="M22.2788 5.29625C22.3078 5.26714 22.3423 5.24405 22.3803 5.2283C22.4182 5.21255 22.4589 5.20444 22.5 5.20444C22.5411 5.20444 22.5818 5.21255 22.6198 5.2283C22.6578 5.24405 22.6923 5.26714 22.7213 5.29625L24.4888 7.065C24.5472 7.12357 24.58 7.20291 24.58 7.28562C24.58 7.36833 24.5472 7.44767 24.4888 7.50625L14.1225 17.875C14.0831 17.9143 14.0339 17.9423 13.98 17.9562L11.5875 18.5812C11.5348 18.595 11.4794 18.5947 11.4268 18.5804C11.3742 18.5662 11.3262 18.5384 11.2877 18.4998C11.2492 18.4613 11.2214 18.4133 11.2071 18.3607C11.1928 18.3082 11.1925 18.2527 11.2063 18.2L11.8313 15.8075C11.8452 15.7536 11.8732 15.7044 11.9125 15.665L22.2788 5.29625Z" fill="#1D52AD"/>
</svg>
