<svg width="50" height="50" viewBox="0 0 50 50" fill="none" xmlns="http://www.w3.org/2000/svg">
<path d="M24.8843 49.9974C31.0215 49.9109 36.7965 47.3527 41.3183 42.8844C46.0616 38.1972 49.7656 32.119 49.9873 25.1913C50.2157 18.0564 47.3428 11.1022 42.4914 6.2352C37.793 1.52164 31.3057 0.109575 24.8843 0.00747332C18.3422 -0.096548 11.5149 0.840312 6.74933 5.66689C1.8671 10.6116 -0.22323 17.9795 0.0187683 25.1913C0.252326 32.1517 3.26872 38.6204 8.01395 43.3543C12.5798 47.9092 18.6601 50.0853 24.8843 49.9974Z" fill="#85E0FF"/>
<path d="M37.3521 33.6184C38.865 33.4411 39.9092 31.4937 39.6842 29.2688C39.4593 27.0438 38.0504 25.3839 36.5375 25.5612C35.0246 25.7385 33.9804 27.6859 34.2054 29.9108C34.4303 32.1358 35.8391 33.7957 37.3521 33.6184Z" fill="#176BC6"/>
<path d="M18.2696 13.4602C19.8376 13.3587 21.009 11.4886 20.8859 9.283C20.7628 7.07743 19.3919 5.37169 17.8239 5.4731C16.2559 5.57452 15.0845 7.4447 15.2076 9.65027C15.3307 11.8558 16.7016 13.5616 18.2696 13.4602Z" fill="#176BC6"/>
<path d="M27.3276 12.2604C27.5618 10.1671 26.4874 8.30608 24.9279 8.10382C23.3683 7.90155 21.9141 9.43459 21.6799 11.528C21.4457 13.6213 22.5201 15.4823 24.0796 15.6846C25.6392 15.8869 27.0934 14.3538 27.3276 12.2604Z" fill="#176BC6"/>
<path d="M12.2031 14.9526C13.7581 14.5588 14.6118 12.3781 14.11 10.0819C13.6083 7.78566 11.941 6.2435 10.3861 6.63734C8.83115 7.03119 7.97742 9.2119 8.47919 11.5081C8.98096 13.8043 10.6482 15.3465 12.2031 14.9526Z" fill="#176BC6"/>
<path d="M34.3628 37.2651C39.9442 33.9046 46.3309 38.645 45.4924 42.2679C44.5911 46.1494 41.1595 44.0575 38.5922 45.0677C37.015 45.6881 34.6066 49.1718 31.8325 47.0442C29.413 45.187 30.7206 39.4563 34.3628 37.2651Z" fill="#176BC6"/>
<path d="M15.3394 15.8098C19.3288 14.6844 24.8917 18.021 24.2564 21.8268C23.658 25.41 19.0333 23.8471 17.1568 24.5987C14.7115 25.577 11.6456 28.4602 9.90207 25.577C7.93695 22.3199 11.8377 16.8001 15.3394 15.8098Z" fill="#176BC6"/>
<path d="M7.85047 19.4433C9.21262 18.5966 9.49411 16.376 8.47918 14.4834C7.46425 12.5908 5.53724 11.7429 4.17508 12.5896C2.81293 13.4363 2.53144 15.6569 3.54637 17.5495C4.5613 19.4421 6.48831 20.29 7.85047 19.4433Z" fill="#176BC6"/>
<path d="M32.3359 36.0015C33.751 35.1218 34.0556 32.8375 33.0162 30.8992C31.9768 28.961 29.987 28.1028 28.5718 28.9825C27.1567 29.8621 26.8521 32.1465 27.8915 34.0847C28.9309 36.0229 30.9207 36.8811 32.3359 36.0015Z" fill="#176BC6"/>
<path d="M28.2514 41.7403C29.4927 40.7923 29.5238 38.5439 28.321 36.7185C27.1182 34.8931 25.1368 34.1819 23.8956 35.13C22.6543 36.078 22.6232 38.3263 23.826 40.1517C25.0288 41.9771 27.0102 42.6884 28.2514 41.7403Z" fill="#176BC6"/>
<path d="M43.9601 34.641C45.473 34.5404 46.603 32.7777 46.4841 30.7039C46.3651 28.6301 45.0423 27.0305 43.5294 27.131C42.0165 27.2316 40.8865 28.9943 41.0054 31.0681C41.1244 33.1419 42.4472 34.7415 43.9601 34.641Z" fill="#176BC6"/>
</svg>
