<svg width="30" height="30" viewBox="0 0 30 30" fill="none" xmlns="http://www.w3.org/2000/svg">
<path d="M15.6667 27.6666C9.05166 27.6666 3.66666 22.2816 3.66666 15.6666C3.66666 9.05163 9.05166 3.66663 15.6667 3.66663C22.2817 3.66663 27.6667 9.05163 27.6667 15.6666C27.6667 22.2816 22.2817 27.6666 15.6667 27.6666ZM15.6667 0.666626C7.37166 0.666626 0.666656 7.37163 0.666656 15.6666C0.666656 23.9616 7.37166 30.6666 15.6667 30.6666C23.9617 30.6666 30.6667 23.9616 30.6667 15.6666C30.6667 7.37163 23.9617 0.666626 15.6667 0.666626ZM19.5517 9.66663L15.6667 13.5516L11.7817 9.66663L9.66666 11.7816L13.5517 15.6666L9.66666 19.5516L11.7817 21.6666L15.6667 17.7816L19.5517 21.6666L21.6667 19.5516L17.7817 15.6666L21.6667 11.7816L19.5517 9.66663Z" fill="#1D52AD"/>
</svg>
