<svg width="30" height="30" viewBox="0 0 30 30" fill="none" xmlns="http://www.w3.org/2000/svg">
<path d="M21.8505 19.6887C23.756 17.237 24.6549 14.1517 24.3643 11.0608C24.0736 7.96997 22.6152 5.10605 20.2861 3.0522C17.9569 0.998347 14.9321 -0.0910031 11.8276 0.00595906C8.72307 0.102921 5.77223 1.3789 3.57592 3.5741C1.37961 5.76929 0.102974 8.71863 0.00596209 11.8216C-0.0910493 14.9246 0.998854 17.9478 3.05375 20.2758C5.10865 22.6037 7.97403 24.0614 11.0665 24.3519C14.1589 24.6424 17.2458 23.7439 19.6987 21.8394L27.8329 30L30 27.834L21.8505 19.704V19.6887ZM21.3622 12.2145C21.3622 13.4164 21.1253 14.6065 20.6652 15.7169C20.205 16.8273 19.5305 17.8362 18.6803 18.686C17.83 19.5359 16.8206 20.21 15.7096 20.6699C14.5987 21.1299 13.408 21.3666 12.2055 21.3666C11.003 21.3666 9.81232 21.1299 8.70138 20.6699C7.59044 20.21 6.58101 19.5359 5.73074 18.686C4.88046 17.8362 4.20598 16.8273 3.74582 15.7169C3.28565 14.6065 3.0488 13.4164 3.0488 12.2145C3.0488 9.78727 4.01352 7.45942 5.73074 5.74308C7.44795 4.02674 9.77699 3.06251 12.2055 3.06251C14.634 3.06251 16.963 4.02674 18.6803 5.74308C20.3975 7.45942 21.3622 9.78727 21.3622 12.2145Z" fill="#1D52AD"/>
</svg>
